<svg width="20" height="20" viewBox="0 0 20 20" fill="none" xmlns="http://www.w3.org/2000/svg">
<g id="Calendar">
<path id="Subtract" fill-rule="evenodd" clip-rule="evenodd" d="M15.25 3.86364H14.5V3.18182C14.5 3.00099 14.421 2.82757 14.2803 2.6997C14.1397 2.57183 13.9489 2.5 13.75 2.5C13.5511 2.5 13.3603 2.57183 13.2197 2.6997C13.079 2.82757 13 3.00099 13 3.18182V3.86364H7V3.18182C7 3.00099 6.92098 2.82757 6.78033 2.6997C6.63968 2.57183 6.44891 2.5 6.25 2.5C6.05109 2.5 5.86032 2.57183 5.71967 2.6997C5.57902 2.82757 5.5 3.00099 5.5 3.18182V3.86364H4.75C4.15326 3.86364 3.58097 4.07914 3.15901 4.46274C2.73705 4.84633 2.5 5.3666 2.5 5.90909V15.4545C2.5 15.997 2.73705 16.5173 3.15901 16.9009C3.58097 17.2845 4.15326 17.5 4.75 17.5H15.25C15.8467 17.5 16.419 17.2845 16.841 16.9009C17.2629 16.5173 17.5 15.997 17.5 15.4545V5.90909C17.5 5.3666 17.2629 4.84633 16.841 4.46274C16.419 4.07914 15.8467 3.86364 15.25 3.86364ZM16 7.95455H4V5.90909C4 5.72826 4.07902 5.55484 4.21967 5.42697C4.36032 5.29911 4.55109 5.22727 4.75 5.22727H5.5V5.90909C5.5 6.08992 5.57902 6.26334 5.71967 6.39121C5.86032 6.51907 6.05109 6.59091 6.25 6.59091C6.44891 6.59091 6.63968 6.51907 6.78033 6.39121C6.92098 6.26334 7 6.08992 7 5.90909V5.22727H13V5.90909C13 6.08992 13.079 6.26334 13.2197 6.39121C13.3603 6.51907 13.5511 6.59091 13.75 6.59091C13.9489 6.59091 14.1397 6.51907 14.2803 6.39121C14.421 6.26334 14.5 6.08992 14.5 5.90909V5.22727H15.25C15.4489 5.22727 15.6397 5.29911 15.7803 5.42697C15.921 5.55484 16 5.72826 16 5.90909V7.95455ZM7.5 10.8333C7.5 11.2936 7.1269 11.6667 6.66667 11.6667C6.20643 11.6667 5.83333 11.2936 5.83333 10.8333C5.83333 10.3731 6.20643 10 6.66667 10C7.1269 10 7.5 10.3731 7.5 10.8333ZM6.66667 15C7.1269 15 7.5 14.6269 7.5 14.1667C7.5 13.7064 7.1269 13.3333 6.66667 13.3333C6.20643 13.3333 5.83333 13.7064 5.83333 14.1667C5.83333 14.6269 6.20643 15 6.66667 15ZM10.8333 10.8333C10.8333 11.2936 10.4602 11.6667 10 11.6667C9.53976 11.6667 9.16667 11.2936 9.16667 10.8333C9.16667 10.3731 9.53976 10 10 10C10.4602 10 10.8333 10.3731 10.8333 10.8333ZM10 15C10.4602 15 10.8333 14.6269 10.8333 14.1667C10.8333 13.7064 10.4602 13.3333 10 13.3333C9.53976 13.3333 9.16667 13.7064 9.16667 14.1667C9.16667 14.6269 9.53976 15 10 15ZM14.1667 10.8333C14.1667 11.2936 13.7936 11.6667 13.3333 11.6667C12.8731 11.6667 12.5 11.2936 12.5 10.8333C12.5 10.3731 12.8731 10 13.3333 10C13.7936 10 14.1667 10.3731 14.1667 10.8333ZM13.3333 15C13.7936 15 14.1667 14.6269 14.1667 14.1667C14.1667 13.7064 13.7936 13.3333 13.3333 13.3333C12.8731 13.3333 12.5 13.7064 12.5 14.1667C12.5 14.6269 12.8731 15 13.3333 15Z" fill="white"/>
</g>
</svg>
