<svg width="202" height="26" viewBox="0 0 202 26" fill="none" xmlns="http://www.w3.org/2000/svg">
<path d="M0.0227273 25V1.72727H15.4318V5.78409H4.94318V11.3295H14.4091V15.3864H4.94318V25H0.0227273ZM18.6506 25V7.54545H23.4915V25H18.6506ZM21.0824 5.29545C20.3627 5.29545 19.7453 5.05682 19.2301 4.57954C18.7225 4.0947 18.4688 3.51515 18.4688 2.84091C18.4688 2.17424 18.7225 1.60227 19.2301 1.125C19.7453 0.640151 20.3627 0.397726 21.0824 0.397726C21.8021 0.397726 22.4157 0.640151 22.9233 1.125C23.4384 1.60227 23.696 2.17424 23.696 2.84091C23.696 3.51515 23.4384 4.0947 22.9233 4.57954C22.4157 5.05682 21.8021 5.29545 21.0824 5.29545ZM32.2102 1.72727V25H27.3693V1.72727H32.2102ZM36.0881 25V7.54545H40.7017V10.625H40.9062C41.2699 9.60227 41.8759 8.79545 42.7244 8.20454C43.5729 7.61364 44.5881 7.31818 45.7699 7.31818C46.9669 7.31818 47.9858 7.61742 48.8267 8.21591C49.6676 8.80682 50.2282 9.60985 50.5085 10.625H50.6903C51.0464 9.625 51.6903 8.82576 52.6222 8.22727C53.5616 7.62121 54.6714 7.31818 55.9517 7.31818C57.5805 7.31818 58.9025 7.83712 59.9176 8.875C60.9403 9.9053 61.4517 11.3674 61.4517 13.2614V25H56.6222V14.2159C56.6222 13.2462 56.3646 12.5189 55.8494 12.0341C55.3343 11.5492 54.6903 11.3068 53.9176 11.3068C53.0388 11.3068 52.3532 11.5871 51.8608 12.1477C51.3684 12.7008 51.1222 13.4318 51.1222 14.3409V25H46.429V14.1136C46.429 13.2576 46.1828 12.5758 45.6903 12.0682C45.2055 11.5606 44.5653 11.3068 43.7699 11.3068C43.232 11.3068 42.7472 11.4432 42.3153 11.7159C41.8911 11.9811 41.554 12.3561 41.304 12.8409C41.054 13.3182 40.929 13.8788 40.929 14.5227V25H36.0881Z" fill="#DC2121"/>
<path d="M65.3665 25V1.72727H80.7756V5.78409H70.2869V11.3295H79.7528V15.3864H70.2869V25H65.3665ZM90.6676 25.3409C88.8722 25.3409 87.3267 24.9773 86.0312 24.25C84.7434 23.5152 83.7509 22.4773 83.054 21.1364C82.357 19.7879 82.0085 18.1932 82.0085 16.3523C82.0085 14.5568 82.357 12.9811 83.054 11.625C83.7509 10.2689 84.732 9.21212 85.9972 8.45454C87.2699 7.69697 88.7623 7.31818 90.4744 7.31818C91.6259 7.31818 92.6979 7.50379 93.6903 7.875C94.6903 8.23864 95.5616 8.78788 96.304 9.52273C97.054 10.2576 97.6373 11.1818 98.054 12.2955C98.4706 13.4015 98.679 14.697 98.679 16.1818V17.5114H83.9403V14.5114H94.1222C94.1222 13.8144 93.9706 13.197 93.6676 12.6591C93.3646 12.1212 92.9441 11.7008 92.4062 11.3977C91.8759 11.0871 91.2585 10.9318 90.554 10.9318C89.8191 10.9318 89.1676 11.1023 88.5994 11.4432C88.0388 11.7765 87.5994 12.2273 87.2812 12.7955C86.9631 13.3561 86.8002 13.9811 86.7926 14.6705V17.5227C86.7926 18.3864 86.9517 19.1326 87.2699 19.7614C87.5956 20.3902 88.054 20.875 88.6449 21.2159C89.2358 21.5568 89.9366 21.7273 90.7472 21.7273C91.285 21.7273 91.7775 21.6515 92.2244 21.5C92.6714 21.3485 93.054 21.1212 93.3722 20.8182C93.6903 20.5152 93.9328 20.1439 94.0994 19.7045L98.5767 20C98.3494 21.0758 97.8835 22.0152 97.179 22.8182C96.482 23.6136 95.5805 24.2348 94.4744 24.6818C93.3759 25.1212 92.107 25.3409 90.6676 25.3409ZM116.361 12.5227L111.929 12.7955C111.853 12.4167 111.69 12.0758 111.44 11.7727C111.19 11.4621 110.861 11.2159 110.452 11.0341C110.05 10.8447 109.569 10.75 109.009 10.75C108.259 10.75 107.626 10.9091 107.111 11.2273C106.596 11.5379 106.338 11.9545 106.338 12.4773C106.338 12.8939 106.505 13.2462 106.838 13.5341C107.171 13.822 107.743 14.053 108.554 14.2273L111.713 14.8636C113.41 15.2121 114.675 15.7727 115.509 16.5455C116.342 17.3182 116.759 18.3333 116.759 19.5909C116.759 20.7348 116.421 21.7386 115.747 22.6023C115.08 23.4659 114.164 24.1402 112.997 24.625C111.838 25.1023 110.501 25.3409 108.986 25.3409C106.675 25.3409 104.834 24.8598 103.463 23.8977C102.099 22.928 101.3 21.6098 101.065 19.9432L105.827 19.6932C105.971 20.3977 106.319 20.9356 106.872 21.3068C107.425 21.6705 108.134 21.8523 108.997 21.8523C109.846 21.8523 110.527 21.6894 111.043 21.3636C111.565 21.0303 111.83 20.6023 111.838 20.0795C111.83 19.6402 111.645 19.2803 111.281 19C110.918 18.7121 110.357 18.4924 109.599 18.3409L106.577 17.7386C104.872 17.3977 103.603 16.8068 102.77 15.9659C101.944 15.125 101.531 14.053 101.531 12.75C101.531 11.6288 101.834 10.6629 102.44 9.85227C103.054 9.04167 103.914 8.41667 105.02 7.97727C106.134 7.53788 107.437 7.31818 108.929 7.31818C111.134 7.31818 112.868 7.78409 114.134 8.71591C115.406 9.64773 116.149 10.9167 116.361 12.5227ZM129.091 7.54545V11.1818H118.58V7.54545H129.091ZM120.966 3.36364H125.807V19.6364C125.807 20.0833 125.875 20.4318 126.011 20.6818C126.148 20.9242 126.337 21.0947 126.58 21.1932C126.83 21.2917 127.117 21.3409 127.443 21.3409C127.67 21.3409 127.898 21.322 128.125 21.2841C128.352 21.2386 128.527 21.2045 128.648 21.1818L129.409 24.7841C129.167 24.8598 128.826 24.947 128.386 25.0455C127.947 25.1515 127.413 25.2159 126.784 25.2386C125.617 25.2841 124.595 25.1288 123.716 24.7727C122.845 24.4167 122.167 23.8636 121.682 23.1136C121.197 22.3636 120.958 21.4167 120.966 20.2727V3.36364Z" fill="black"/>
<path d="M132.244 25V7.54545H137.085V25H132.244ZM134.676 5.29545C133.956 5.29545 133.339 5.05682 132.824 4.57954C132.316 4.0947 132.062 3.51515 132.062 2.84091C132.062 2.17424 132.316 1.60227 132.824 1.125C133.339 0.640151 133.956 0.397726 134.676 0.397726C135.396 0.397726 136.009 0.640151 136.517 1.125C137.032 1.60227 137.29 2.17424 137.29 2.84091C137.29 3.51515 137.032 4.0947 136.517 4.57954C136.009 5.05682 135.396 5.29545 134.676 5.29545ZM157.236 7.54545L151.134 25H145.679L139.577 7.54545H144.69L148.315 20.0341H148.497L152.111 7.54545H157.236ZM164.222 25.3295C163.108 25.3295 162.116 25.1364 161.244 24.75C160.373 24.3561 159.684 23.7765 159.176 23.0114C158.676 22.2386 158.426 21.2765 158.426 20.125C158.426 19.1553 158.604 18.3409 158.96 17.6818C159.316 17.0227 159.801 16.4924 160.415 16.0909C161.028 15.6894 161.725 15.3864 162.506 15.1818C163.294 14.9773 164.119 14.8333 164.983 14.75C165.998 14.6439 166.816 14.5455 167.438 14.4545C168.059 14.3561 168.509 14.2121 168.79 14.0227C169.07 13.8333 169.21 13.553 169.21 13.1818V13.1136C169.21 12.3939 168.983 11.8371 168.528 11.4432C168.081 11.0492 167.445 10.8523 166.619 10.8523C165.748 10.8523 165.055 11.0455 164.54 11.4318C164.025 11.8106 163.684 12.2879 163.517 12.8636L159.04 12.5C159.267 11.4394 159.714 10.5227 160.381 9.75C161.047 8.9697 161.907 8.37121 162.96 7.95454C164.021 7.5303 165.248 7.31818 166.642 7.31818C167.612 7.31818 168.54 7.43182 169.426 7.65909C170.32 7.88636 171.112 8.23864 171.801 8.71591C172.498 9.19318 173.047 9.80682 173.449 10.5568C173.85 11.2992 174.051 12.1894 174.051 13.2273V25H169.46V22.5795H169.324C169.044 23.125 168.669 23.6061 168.199 24.0227C167.729 24.4318 167.165 24.7538 166.506 24.9886C165.847 25.2159 165.085 25.3295 164.222 25.3295ZM165.608 21.9886C166.32 21.9886 166.949 21.8485 167.494 21.5682C168.04 21.2803 168.468 20.8939 168.778 20.4091C169.089 19.9242 169.244 19.375 169.244 18.7614V16.9091C169.093 17.0076 168.884 17.0985 168.619 17.1818C168.362 17.2576 168.07 17.3295 167.744 17.3977C167.419 17.4583 167.093 17.5152 166.767 17.5682C166.441 17.6136 166.146 17.6553 165.881 17.6932C165.313 17.7765 164.816 17.9091 164.392 18.0909C163.968 18.2727 163.638 18.5189 163.403 18.8295C163.169 19.1326 163.051 19.5114 163.051 19.9659C163.051 20.625 163.29 21.1288 163.767 21.4773C164.252 21.8182 164.866 21.9886 165.608 21.9886ZM182.648 1.72727V25H177.807V1.72727H182.648ZM201.048 12.5227L196.616 12.7955C196.541 12.4167 196.378 12.0758 196.128 11.7727C195.878 11.4621 195.548 11.2159 195.139 11.0341C194.738 10.8447 194.257 10.75 193.696 10.75C192.946 10.75 192.313 10.9091 191.798 11.2273C191.283 11.5379 191.026 11.9545 191.026 12.4773C191.026 12.8939 191.192 13.2462 191.526 13.5341C191.859 13.822 192.431 14.053 193.241 14.2273L196.401 14.8636C198.098 15.2121 199.363 15.7727 200.196 16.5455C201.029 17.3182 201.446 18.3333 201.446 19.5909C201.446 20.7348 201.109 21.7386 200.435 22.6023C199.768 23.4659 198.851 24.1402 197.685 24.625C196.526 25.1023 195.188 25.3409 193.673 25.3409C191.363 25.3409 189.522 24.8598 188.151 23.8977C186.787 22.928 185.988 21.6098 185.753 19.9432L190.514 19.6932C190.658 20.3977 191.007 20.9356 191.56 21.3068C192.113 21.6705 192.821 21.8523 193.685 21.8523C194.533 21.8523 195.215 21.6894 195.73 21.3636C196.253 21.0303 196.518 20.6023 196.526 20.0795C196.518 19.6402 196.332 19.2803 195.969 19C195.605 18.7121 195.045 18.4924 194.287 18.3409L191.264 17.7386C189.56 17.3977 188.291 16.8068 187.457 15.9659C186.632 15.125 186.219 14.053 186.219 12.75C186.219 11.6288 186.522 10.6629 187.128 9.85227C187.741 9.04167 188.601 8.41667 189.707 7.97727C190.821 7.53788 192.124 7.31818 193.616 7.31818C195.821 7.31818 197.556 7.78409 198.821 8.71591C200.094 9.64773 200.836 10.9167 201.048 12.5227Z" fill="#050505"/>
</svg>
